<mxfile host="65bd71144e">
    <diagram id="_MnvUN-D74GrK0oXnusO" name="Page-1">
        <mxGraphModel dx="1454" dy="1358" grid="1" gridSize="10" guides="1" tooltips="1" connect="1" arrows="1" fold="1" page="0" pageScale="1" pageWidth="850" pageHeight="1100" math="0" shadow="0">
            <root>
                <mxCell id="0"/>
                <mxCell id="1" parent="0"/>
                <mxCell id="228" value="" style="rounded=0;whiteSpace=wrap;html=1;" parent="1" vertex="1">
                    <mxGeometry x="880" y="840" width="180" height="180" as="geometry"/>
                </mxCell>
                <mxCell id="374" value="" style="pointerEvents=1;verticalLabelPosition=bottom;shadow=0;dashed=0;align=center;html=1;verticalAlign=top;shape=mxgraph.electrical.resistors.resistor_2;direction=west;fillColor=#60a917;strokeColor=#2D7600;fontColor=#ffffff;" vertex="1" parent="1">
                    <mxGeometry x="1070" y="560" width="100" height="20" as="geometry"/>
                </mxCell>
                <mxCell id="159" value="Arduino" parent="0"/>
                <mxCell id="160" value="Arduino Nano 33 IoT" style="rounded=0;whiteSpace=wrap;html=1;" parent="159" vertex="1">
                    <mxGeometry x="560" y="290" width="240" height="340" as="geometry"/>
                </mxCell>
                <mxCell id="161" value="Micro USB Port" style="rounded=0;whiteSpace=wrap;html=1;" parent="159" vertex="1">
                    <mxGeometry x="620" y="270" width="120" height="60" as="geometry"/>
                </mxCell>
                <mxCell id="162" value="" style="rounded=0;whiteSpace=wrap;html=1;" parent="159" vertex="1">
                    <mxGeometry x="620" y="610" width="120" height="40" as="geometry"/>
                </mxCell>
                <mxCell id="163" value="" style="rounded=0;whiteSpace=wrap;html=1;" parent="159" vertex="1">
                    <mxGeometry x="620" y="510" width="120" height="100" as="geometry"/>
                </mxCell>
                <mxCell id="164" value="" style="ellipse;whiteSpace=wrap;html=1;aspect=fixed;" parent="159" vertex="1">
                    <mxGeometry x="780" y="310" width="20" height="20" as="geometry"/>
                </mxCell>
                <mxCell id="165" value="" style="ellipse;whiteSpace=wrap;html=1;aspect=fixed;" parent="159" vertex="1">
                    <mxGeometry x="780" y="330" width="20" height="20" as="geometry"/>
                </mxCell>
                <mxCell id="166" value="" style="ellipse;whiteSpace=wrap;html=1;aspect=fixed;" parent="159" vertex="1">
                    <mxGeometry x="780" y="350" width="20" height="20" as="geometry"/>
                </mxCell>
                <mxCell id="167" value="" style="ellipse;whiteSpace=wrap;html=1;aspect=fixed;" parent="159" vertex="1">
                    <mxGeometry x="780" y="370" width="20" height="20" as="geometry"/>
                </mxCell>
                <mxCell id="168" value="" style="ellipse;whiteSpace=wrap;html=1;aspect=fixed;" parent="159" vertex="1">
                    <mxGeometry x="780" y="390" width="20" height="20" as="geometry"/>
                </mxCell>
                <mxCell id="169" value="" style="ellipse;whiteSpace=wrap;html=1;aspect=fixed;" parent="159" vertex="1">
                    <mxGeometry x="780" y="410" width="20" height="20" as="geometry"/>
                </mxCell>
                <mxCell id="170" value="" style="ellipse;whiteSpace=wrap;html=1;aspect=fixed;" parent="159" vertex="1">
                    <mxGeometry x="780" y="430" width="20" height="20" as="geometry"/>
                </mxCell>
                <mxCell id="171" value="" style="ellipse;whiteSpace=wrap;html=1;aspect=fixed;" parent="159" vertex="1">
                    <mxGeometry x="780" y="450" width="20" height="20" as="geometry"/>
                </mxCell>
                <mxCell id="172" value="D12" style="text;html=1;strokeColor=none;fillColor=none;align=left;verticalAlign=middle;whiteSpace=wrap;rounded=0;" parent="159" vertex="1">
                    <mxGeometry x="800" y="300" width="40" height="20" as="geometry"/>
                </mxCell>
                <mxCell id="173" value="D11" style="text;html=1;strokeColor=none;fillColor=none;align=left;verticalAlign=middle;whiteSpace=wrap;rounded=0;" parent="159" vertex="1">
                    <mxGeometry x="800" y="320" width="40" height="20" as="geometry"/>
                </mxCell>
                <mxCell id="174" value="D10" style="text;html=1;strokeColor=none;fillColor=none;align=left;verticalAlign=middle;whiteSpace=wrap;rounded=0;" parent="159" vertex="1">
                    <mxGeometry x="800" y="340" width="40" height="20" as="geometry"/>
                </mxCell>
                <mxCell id="175" value="D9" style="text;html=1;strokeColor=none;fillColor=none;align=left;verticalAlign=middle;whiteSpace=wrap;rounded=0;" parent="159" vertex="1">
                    <mxGeometry x="800" y="360" width="40" height="20" as="geometry"/>
                </mxCell>
                <mxCell id="176" value="D8" style="text;html=1;strokeColor=none;fillColor=none;align=left;verticalAlign=middle;whiteSpace=wrap;rounded=0;" parent="159" vertex="1">
                    <mxGeometry x="800" y="380" width="40" height="20" as="geometry"/>
                </mxCell>
                <mxCell id="177" value="D7" style="text;html=1;strokeColor=none;fillColor=none;align=left;verticalAlign=middle;whiteSpace=wrap;rounded=0;" parent="159" vertex="1">
                    <mxGeometry x="800" y="400" width="40" height="20" as="geometry"/>
                </mxCell>
                <mxCell id="178" value="D6" style="text;html=1;strokeColor=none;fillColor=none;align=left;verticalAlign=middle;whiteSpace=wrap;rounded=0;" parent="159" vertex="1">
                    <mxGeometry x="800" y="420" width="40" height="20" as="geometry"/>
                </mxCell>
                <mxCell id="179" value="D5" style="text;html=1;strokeColor=none;fillColor=none;align=left;verticalAlign=middle;whiteSpace=wrap;rounded=0;" parent="159" vertex="1">
                    <mxGeometry x="800" y="440" width="40" height="20" as="geometry"/>
                </mxCell>
                <mxCell id="180" value="" style="ellipse;whiteSpace=wrap;html=1;aspect=fixed;" parent="159" vertex="1">
                    <mxGeometry x="780" y="470" width="20" height="20" as="geometry"/>
                </mxCell>
                <mxCell id="181" value="D4" style="text;html=1;strokeColor=none;fillColor=none;align=left;verticalAlign=middle;whiteSpace=wrap;rounded=0;" parent="159" vertex="1">
                    <mxGeometry x="800" y="460" width="40" height="20" as="geometry"/>
                </mxCell>
                <mxCell id="182" value="" style="ellipse;whiteSpace=wrap;html=1;aspect=fixed;" parent="159" vertex="1">
                    <mxGeometry x="780" y="490" width="20" height="20" as="geometry"/>
                </mxCell>
                <mxCell id="183" value="D3" style="text;html=1;strokeColor=none;fillColor=none;align=left;verticalAlign=middle;whiteSpace=wrap;rounded=0;" parent="159" vertex="1">
                    <mxGeometry x="800" y="480" width="40" height="20" as="geometry"/>
                </mxCell>
                <mxCell id="184" value="" style="ellipse;whiteSpace=wrap;html=1;aspect=fixed;" parent="159" vertex="1">
                    <mxGeometry x="780" y="510" width="20" height="20" as="geometry"/>
                </mxCell>
                <mxCell id="185" value="D2" style="text;html=1;strokeColor=none;fillColor=none;align=left;verticalAlign=middle;whiteSpace=wrap;rounded=0;" parent="159" vertex="1">
                    <mxGeometry x="800" y="500" width="40" height="20" as="geometry"/>
                </mxCell>
                <mxCell id="186" value="" style="ellipse;whiteSpace=wrap;html=1;aspect=fixed;" parent="159" vertex="1">
                    <mxGeometry x="780" y="530" width="20" height="20" as="geometry"/>
                </mxCell>
                <mxCell id="187" value="GND" style="text;html=1;strokeColor=none;fillColor=none;align=left;verticalAlign=middle;whiteSpace=wrap;rounded=0;" parent="159" vertex="1">
                    <mxGeometry x="800" y="520" width="40" height="20" as="geometry"/>
                </mxCell>
                <mxCell id="188" value="" style="ellipse;whiteSpace=wrap;html=1;aspect=fixed;" parent="159" vertex="1">
                    <mxGeometry x="780" y="550" width="20" height="20" as="geometry"/>
                </mxCell>
                <mxCell id="189" value="RESET" style="text;html=1;strokeColor=none;fillColor=none;align=left;verticalAlign=middle;whiteSpace=wrap;rounded=0;" parent="159" vertex="1">
                    <mxGeometry x="800" y="540" width="40" height="20" as="geometry"/>
                </mxCell>
                <mxCell id="190" value="" style="ellipse;whiteSpace=wrap;html=1;aspect=fixed;" parent="159" vertex="1">
                    <mxGeometry x="780" y="570" width="20" height="20" as="geometry"/>
                </mxCell>
                <mxCell id="191" value="RX" style="text;html=1;strokeColor=none;fillColor=none;align=left;verticalAlign=middle;whiteSpace=wrap;rounded=0;" parent="159" vertex="1">
                    <mxGeometry x="800" y="560" width="40" height="20" as="geometry"/>
                </mxCell>
                <mxCell id="192" value="" style="ellipse;whiteSpace=wrap;html=1;aspect=fixed;" parent="159" vertex="1">
                    <mxGeometry x="780" y="590" width="20" height="20" as="geometry"/>
                </mxCell>
                <mxCell id="193" value="TX" style="text;html=1;strokeColor=none;fillColor=none;align=left;verticalAlign=middle;whiteSpace=wrap;rounded=0;" parent="159" vertex="1">
                    <mxGeometry x="800" y="580" width="40" height="20" as="geometry"/>
                </mxCell>
                <mxCell id="194" value="" style="ellipse;whiteSpace=wrap;html=1;aspect=fixed;" parent="159" vertex="1">
                    <mxGeometry x="560" y="310" width="20" height="20" as="geometry"/>
                </mxCell>
                <mxCell id="195" value="" style="ellipse;whiteSpace=wrap;html=1;aspect=fixed;" parent="159" vertex="1">
                    <mxGeometry x="560" y="330" width="20" height="20" as="geometry"/>
                </mxCell>
                <mxCell id="196" value="" style="ellipse;whiteSpace=wrap;html=1;aspect=fixed;" parent="159" vertex="1">
                    <mxGeometry x="560" y="350" width="20" height="20" as="geometry"/>
                </mxCell>
                <mxCell id="197" value="" style="ellipse;whiteSpace=wrap;html=1;aspect=fixed;" parent="159" vertex="1">
                    <mxGeometry x="560" y="370" width="20" height="20" as="geometry"/>
                </mxCell>
                <mxCell id="198" value="" style="ellipse;whiteSpace=wrap;html=1;aspect=fixed;" parent="159" vertex="1">
                    <mxGeometry x="560" y="390" width="20" height="20" as="geometry"/>
                </mxCell>
                <mxCell id="199" value="" style="ellipse;whiteSpace=wrap;html=1;aspect=fixed;" parent="159" vertex="1">
                    <mxGeometry x="560" y="410" width="20" height="20" as="geometry"/>
                </mxCell>
                <mxCell id="200" value="" style="ellipse;whiteSpace=wrap;html=1;aspect=fixed;" parent="159" vertex="1">
                    <mxGeometry x="560" y="430" width="20" height="20" as="geometry"/>
                </mxCell>
                <mxCell id="201" value="" style="ellipse;whiteSpace=wrap;html=1;aspect=fixed;" parent="159" vertex="1">
                    <mxGeometry x="560" y="450" width="20" height="20" as="geometry"/>
                </mxCell>
                <mxCell id="202" value="" style="ellipse;whiteSpace=wrap;html=1;aspect=fixed;" parent="159" vertex="1">
                    <mxGeometry x="560" y="470" width="20" height="20" as="geometry"/>
                </mxCell>
                <mxCell id="203" value="" style="ellipse;whiteSpace=wrap;html=1;aspect=fixed;" parent="159" vertex="1">
                    <mxGeometry x="560" y="490" width="20" height="20" as="geometry"/>
                </mxCell>
                <mxCell id="204" value="" style="ellipse;whiteSpace=wrap;html=1;aspect=fixed;" parent="159" vertex="1">
                    <mxGeometry x="560" y="510" width="20" height="20" as="geometry"/>
                </mxCell>
                <mxCell id="205" value="" style="ellipse;whiteSpace=wrap;html=1;aspect=fixed;" parent="159" vertex="1">
                    <mxGeometry x="560" y="530" width="20" height="20" as="geometry"/>
                </mxCell>
                <mxCell id="206" value="" style="ellipse;whiteSpace=wrap;html=1;aspect=fixed;" parent="159" vertex="1">
                    <mxGeometry x="560" y="550" width="20" height="20" as="geometry"/>
                </mxCell>
                <mxCell id="207" value="" style="ellipse;whiteSpace=wrap;html=1;aspect=fixed;" parent="159" vertex="1">
                    <mxGeometry x="560" y="570" width="20" height="20" as="geometry"/>
                </mxCell>
                <mxCell id="208" value="" style="ellipse;whiteSpace=wrap;html=1;aspect=fixed;" parent="159" vertex="1">
                    <mxGeometry x="560" y="590" width="20" height="20" as="geometry"/>
                </mxCell>
                <mxCell id="209" value="D13" style="text;html=1;strokeColor=none;fillColor=none;align=right;verticalAlign=middle;whiteSpace=wrap;rounded=0;" parent="159" vertex="1">
                    <mxGeometry x="520" y="300" width="40" height="20" as="geometry"/>
                </mxCell>
                <mxCell id="210" value="+3V3" style="text;html=1;strokeColor=none;fillColor=none;align=right;verticalAlign=middle;whiteSpace=wrap;rounded=0;" parent="159" vertex="1">
                    <mxGeometry x="520" y="320" width="40" height="20" as="geometry"/>
                </mxCell>
                <mxCell id="211" value="AREF" style="text;html=1;strokeColor=none;fillColor=none;align=right;verticalAlign=middle;whiteSpace=wrap;rounded=0;" parent="159" vertex="1">
                    <mxGeometry x="520" y="340" width="40" height="20" as="geometry"/>
                </mxCell>
                <mxCell id="212" value="A0 / D14" style="text;html=1;strokeColor=none;fillColor=none;align=right;verticalAlign=middle;whiteSpace=wrap;rounded=0;" parent="159" vertex="1">
                    <mxGeometry x="510" y="360" width="50" height="20" as="geometry"/>
                </mxCell>
                <mxCell id="213" value="A1 / D15" style="text;html=1;strokeColor=none;fillColor=none;align=right;verticalAlign=middle;whiteSpace=wrap;rounded=0;" parent="159" vertex="1">
                    <mxGeometry x="510" y="380" width="50" height="20" as="geometry"/>
                </mxCell>
                <mxCell id="214" value="A2 / D16" style="text;html=1;strokeColor=none;fillColor=none;align=right;verticalAlign=middle;whiteSpace=wrap;rounded=0;" parent="159" vertex="1">
                    <mxGeometry x="510" y="400" width="50" height="20" as="geometry"/>
                </mxCell>
                <mxCell id="215" value="A3 / D17" style="text;html=1;strokeColor=none;fillColor=none;align=right;verticalAlign=middle;whiteSpace=wrap;rounded=0;" parent="159" vertex="1">
                    <mxGeometry x="510" y="420" width="50" height="20" as="geometry"/>
                </mxCell>
                <mxCell id="216" value="A4 / D18" style="text;html=1;strokeColor=none;fillColor=none;align=right;verticalAlign=middle;whiteSpace=wrap;rounded=0;" parent="159" vertex="1">
                    <mxGeometry x="510" y="440" width="50" height="20" as="geometry"/>
                </mxCell>
                <mxCell id="217" value="A5 / D19" style="text;html=1;strokeColor=none;fillColor=none;align=right;verticalAlign=middle;whiteSpace=wrap;rounded=0;" parent="159" vertex="1">
                    <mxGeometry x="510" y="460" width="50" height="20" as="geometry"/>
                </mxCell>
                <mxCell id="218" value="A6 / D20" style="text;html=1;strokeColor=none;fillColor=none;align=right;verticalAlign=middle;whiteSpace=wrap;rounded=0;" parent="159" vertex="1">
                    <mxGeometry x="510" y="480" width="50" height="20" as="geometry"/>
                </mxCell>
                <mxCell id="219" value="A7 / D21" style="text;html=1;strokeColor=none;fillColor=none;align=right;verticalAlign=middle;whiteSpace=wrap;rounded=0;" parent="159" vertex="1">
                    <mxGeometry x="510" y="500" width="50" height="20" as="geometry"/>
                </mxCell>
                <mxCell id="220" value="+5V" style="text;html=1;strokeColor=none;fillColor=none;align=right;verticalAlign=middle;whiteSpace=wrap;rounded=0;" parent="159" vertex="1">
                    <mxGeometry x="520" y="520" width="40" height="20" as="geometry"/>
                </mxCell>
                <mxCell id="221" value="RESET" style="text;html=1;strokeColor=none;fillColor=none;align=right;verticalAlign=middle;whiteSpace=wrap;rounded=0;" parent="159" vertex="1">
                    <mxGeometry x="520" y="540" width="40" height="20" as="geometry"/>
                </mxCell>
                <mxCell id="222" value="GND" style="text;html=1;strokeColor=none;fillColor=none;align=right;verticalAlign=middle;whiteSpace=wrap;rounded=0;" parent="159" vertex="1">
                    <mxGeometry x="520" y="560" width="40" height="20" as="geometry"/>
                </mxCell>
                <mxCell id="223" value="VIN" style="text;html=1;strokeColor=none;fillColor=none;align=right;verticalAlign=middle;whiteSpace=wrap;rounded=0;" parent="159" vertex="1">
                    <mxGeometry x="520" y="580" width="40" height="20" as="geometry"/>
                </mxCell>
                <mxCell id="224" value="" style="ellipse;whiteSpace=wrap;html=1;aspect=fixed;" parent="159" vertex="1">
                    <mxGeometry x="590" y="300" width="20" height="20" as="geometry"/>
                </mxCell>
                <mxCell id="225" value="" style="ellipse;whiteSpace=wrap;html=1;aspect=fixed;" parent="159" vertex="1">
                    <mxGeometry x="750" y="300" width="20" height="20" as="geometry"/>
                </mxCell>
                <mxCell id="226" value="LED_BUILTIN" style="text;html=1;strokeColor=none;fillColor=none;align=center;verticalAlign=middle;whiteSpace=wrap;rounded=0;rotation=-90;" parent="159" vertex="1">
                    <mxGeometry x="560" y="240" width="80" height="20" as="geometry"/>
                </mxCell>
                <mxCell id="227" value="Power" style="text;html=1;strokeColor=none;fillColor=none;align=center;verticalAlign=middle;whiteSpace=wrap;rounded=0;rotation=-90;" parent="159" vertex="1">
                    <mxGeometry x="740" y="260" width="40" height="20" as="geometry"/>
                </mxCell>
                <mxCell id="230" value="SSD1331 OLED" parent="0"/>
                <mxCell id="232" value="" style="ellipse;whiteSpace=wrap;html=1;aspect=fixed;" parent="230" vertex="1">
                    <mxGeometry x="900" y="840" width="20" height="20" as="geometry"/>
                </mxCell>
                <mxCell id="233" value="" style="ellipse;whiteSpace=wrap;html=1;aspect=fixed;" parent="230" vertex="1">
                    <mxGeometry x="920" y="840" width="20" height="20" as="geometry"/>
                </mxCell>
                <mxCell id="234" value="" style="ellipse;whiteSpace=wrap;html=1;aspect=fixed;" parent="230" vertex="1">
                    <mxGeometry x="940" y="840" width="20" height="20" as="geometry"/>
                </mxCell>
                <mxCell id="235" value="" style="ellipse;whiteSpace=wrap;html=1;aspect=fixed;" parent="230" vertex="1">
                    <mxGeometry x="960" y="840" width="20" height="20" as="geometry"/>
                </mxCell>
                <mxCell id="236" value="" style="ellipse;whiteSpace=wrap;html=1;aspect=fixed;" parent="230" vertex="1">
                    <mxGeometry x="980" y="840" width="20" height="20" as="geometry"/>
                </mxCell>
                <mxCell id="237" value="" style="ellipse;whiteSpace=wrap;html=1;aspect=fixed;" parent="230" vertex="1">
                    <mxGeometry x="1000" y="840" width="20" height="20" as="geometry"/>
                </mxCell>
                <mxCell id="239" value="" style="ellipse;whiteSpace=wrap;html=1;aspect=fixed;" parent="230" vertex="1">
                    <mxGeometry x="1020" y="840" width="20" height="20" as="geometry"/>
                </mxCell>
                <mxCell id="240" value="SSD1331 OLED" style="rounded=0;whiteSpace=wrap;html=1;" parent="230" vertex="1">
                    <mxGeometry x="890" y="870" width="160" height="110" as="geometry"/>
                </mxCell>
                <mxCell id="242" value="" style="rounded=0;whiteSpace=wrap;html=1;" parent="230" vertex="1">
                    <mxGeometry x="910" y="980" width="120" height="20" as="geometry"/>
                </mxCell>
                <mxCell id="243" value="" style="rounded=0;whiteSpace=wrap;html=1;" parent="230" vertex="1">
                    <mxGeometry x="930" y="1000" width="80" height="30" as="geometry"/>
                </mxCell>
                <mxCell id="244" value="GND" style="text;html=1;strokeColor=none;fillColor=none;align=left;verticalAlign=middle;whiteSpace=wrap;rounded=0;rotation=-90;" parent="230" vertex="1">
                    <mxGeometry x="880" y="810" width="40" height="20" as="geometry"/>
                </mxCell>
                <mxCell id="245" value="VCC" style="text;html=1;strokeColor=none;fillColor=none;align=left;verticalAlign=middle;whiteSpace=wrap;rounded=0;rotation=-90;" parent="230" vertex="1">
                    <mxGeometry x="900" y="810" width="40" height="20" as="geometry"/>
                </mxCell>
                <mxCell id="246" value="SCL" style="text;html=1;strokeColor=none;fillColor=none;align=left;verticalAlign=middle;whiteSpace=wrap;rounded=0;rotation=270;" parent="230" vertex="1">
                    <mxGeometry x="920" y="810" width="40" height="20" as="geometry"/>
                </mxCell>
                <mxCell id="247" value="SDA" style="text;html=1;strokeColor=none;fillColor=none;align=left;verticalAlign=middle;whiteSpace=wrap;rounded=0;rotation=-90;" parent="230" vertex="1">
                    <mxGeometry x="940" y="810" width="40" height="20" as="geometry"/>
                </mxCell>
                <mxCell id="248" value="RES" style="text;html=1;strokeColor=none;fillColor=none;align=left;verticalAlign=middle;whiteSpace=wrap;rounded=0;rotation=-90;" parent="230" vertex="1">
                    <mxGeometry x="960" y="810" width="40" height="20" as="geometry"/>
                </mxCell>
                <mxCell id="249" value="DC" style="text;html=1;strokeColor=none;fillColor=none;align=left;verticalAlign=middle;whiteSpace=wrap;rounded=0;rotation=-90;" parent="230" vertex="1">
                    <mxGeometry x="980" y="810" width="40" height="20" as="geometry"/>
                </mxCell>
                <mxCell id="250" value="CS" style="text;html=1;strokeColor=none;fillColor=none;align=left;verticalAlign=middle;whiteSpace=wrap;rounded=0;rotation=-90;" parent="230" vertex="1">
                    <mxGeometry x="1000" y="810" width="40" height="20" as="geometry"/>
                </mxCell>
                <mxCell id="251" value="SSD1331 OLED Wiring" parent="0"/>
                <mxCell id="252" value="" style="endArrow=none;html=1;exitX=0.5;exitY=0;exitDx=0;exitDy=0;fillColor=#60a917;strokeColor=#009900;" parent="251" source="232" edge="1">
                    <mxGeometry width="50" height="50" relative="1" as="geometry">
                        <mxPoint x="990" y="700" as="sourcePoint"/>
                        <mxPoint x="470" y="580" as="targetPoint"/>
                        <Array as="points">
                            <mxPoint x="910" y="720"/>
                            <mxPoint x="440" y="720"/>
                            <mxPoint x="440" y="580"/>
                        </Array>
                    </mxGeometry>
                </mxCell>
                <mxCell id="253" value="" style="endArrow=none;html=1;entryX=0;entryY=0.5;entryDx=0;entryDy=0;fillColor=#d80073;strokeColor=#A50040;" parent="251" target="195" edge="1">
                    <mxGeometry width="50" height="50" relative="1" as="geometry">
                        <mxPoint x="460" y="570" as="sourcePoint"/>
                        <mxPoint x="980" y="480" as="targetPoint"/>
                        <Array as="points">
                            <mxPoint x="460" y="340"/>
                        </Array>
                    </mxGeometry>
                </mxCell>
                <mxCell id="254" value="" style="endArrow=none;html=1;entryX=0.5;entryY=0;entryDx=0;entryDy=0;fillColor=#d80073;strokeColor=#A50040;" parent="251" target="233" edge="1">
                    <mxGeometry width="50" height="50" relative="1" as="geometry">
                        <mxPoint x="460" y="590" as="sourcePoint"/>
                        <mxPoint x="1000" y="640" as="targetPoint"/>
                        <Array as="points">
                            <mxPoint x="460" y="700"/>
                            <mxPoint x="930" y="700"/>
                        </Array>
                    </mxGeometry>
                </mxCell>
                <mxCell id="255" value="" style="endArrow=none;html=1;fillColor=#e3c800;strokeColor=#B09500;" parent="251" edge="1">
                    <mxGeometry width="50" height="50" relative="1" as="geometry">
                        <mxPoint x="950" y="690" as="sourcePoint"/>
                        <mxPoint x="480" y="350" as="targetPoint"/>
                        <Array as="points">
                            <mxPoint x="950" y="680"/>
                            <mxPoint x="480" y="680"/>
                        </Array>
                    </mxGeometry>
                </mxCell>
                <mxCell id="256" value="" style="endArrow=none;html=1;entryX=0;entryY=0.5;entryDx=0;entryDy=0;fillColor=#60a917;strokeColor=#009900;" parent="251" target="207" edge="1">
                    <mxGeometry width="50" height="50" relative="1" as="geometry">
                        <mxPoint x="490" y="580" as="sourcePoint"/>
                        <mxPoint x="370" y="540" as="targetPoint"/>
                    </mxGeometry>
                </mxCell>
                <mxCell id="257" value="" style="endArrow=none;html=1;entryX=0;entryY=0.5;entryDx=0;entryDy=0;fillColor=#e3c800;strokeColor=#B09500;" parent="251" target="194" edge="1">
                    <mxGeometry width="50" height="50" relative="1" as="geometry">
                        <mxPoint x="480" y="330" as="sourcePoint"/>
                        <mxPoint x="440" y="310" as="targetPoint"/>
                        <Array as="points">
                            <mxPoint x="480" y="320"/>
                        </Array>
                    </mxGeometry>
                </mxCell>
                <mxCell id="258" value="" style="endArrow=none;html=1;fillColor=#1ba1e2;strokeColor=#006EAF;" parent="251" edge="1">
                    <mxGeometry width="50" height="50" relative="1" as="geometry">
                        <mxPoint x="970" y="370" as="sourcePoint"/>
                        <mxPoint x="960" y="340" as="targetPoint"/>
                        <Array as="points">
                            <mxPoint x="970" y="340"/>
                        </Array>
                    </mxGeometry>
                </mxCell>
                <mxCell id="259" value="" style="endArrow=none;html=1;fillColor=#fad7ac;strokeColor=#b46504;" parent="251" edge="1">
                    <mxGeometry width="50" height="50" relative="1" as="geometry">
                        <mxPoint x="960" y="380" as="sourcePoint"/>
                        <mxPoint x="990" y="390" as="targetPoint"/>
                        <Array as="points">
                            <mxPoint x="990" y="380"/>
                        </Array>
                    </mxGeometry>
                </mxCell>
                <mxCell id="261" value="" style="endArrow=none;html=1;exitX=0.5;exitY=0;exitDx=0;exitDy=0;fillColor=#1ba1e2;strokeColor=#006EAF;" parent="251" source="235" edge="1">
                    <mxGeometry width="50" height="50" relative="1" as="geometry">
                        <mxPoint x="950" y="530" as="sourcePoint"/>
                        <mxPoint x="970" y="390" as="targetPoint"/>
                    </mxGeometry>
                </mxCell>
                <mxCell id="262" value="" style="endArrow=none;html=1;exitX=1;exitY=0.5;exitDx=0;exitDy=0;fillColor=#6d8764;strokeColor=#FF33FF;" parent="251" source="168" edge="1">
                    <mxGeometry width="50" height="50" relative="1" as="geometry">
                        <mxPoint x="1070" y="610" as="sourcePoint"/>
                        <mxPoint x="960" y="400" as="targetPoint"/>
                    </mxGeometry>
                </mxCell>
                <mxCell id="263" value="" style="endArrow=none;html=1;entryX=0.5;entryY=0;entryDx=0;entryDy=0;strokeColor=#FF33FF;" parent="251" target="237" edge="1">
                    <mxGeometry width="50" height="50" relative="1" as="geometry">
                        <mxPoint x="980" y="400" as="sourcePoint"/>
                        <mxPoint x="1080" y="440" as="targetPoint"/>
                        <Array as="points">
                            <mxPoint x="1010" y="400"/>
                        </Array>
                    </mxGeometry>
                </mxCell>
                <mxCell id="264" value="" style="endArrow=none;html=1;fillColor=#fad7ac;strokeColor=#b46504;" parent="251" edge="1">
                    <mxGeometry width="50" height="50" relative="1" as="geometry">
                        <mxPoint x="990" y="690" as="sourcePoint"/>
                        <mxPoint x="990" y="410" as="targetPoint"/>
                    </mxGeometry>
                </mxCell>
                <mxCell id="265" value="" style="endArrow=none;html=1;exitX=1;exitY=0.5;exitDx=0;exitDy=0;strokeColor=#9673a6;fillColor=#e1d5e7;" parent="251" source="166" edge="1">
                    <mxGeometry width="50" height="50" relative="1" as="geometry">
                        <mxPoint x="1070" y="410" as="sourcePoint"/>
                        <mxPoint x="960" y="360" as="targetPoint"/>
                    </mxGeometry>
                </mxCell>
                <mxCell id="266" value="" style="endArrow=none;html=1;strokeColor=#9673a6;fillColor=#e1d5e7;" parent="251" edge="1">
                    <mxGeometry width="50" height="50" relative="1" as="geometry">
                        <mxPoint x="980" y="360" as="sourcePoint"/>
                        <mxPoint x="1030" y="690" as="targetPoint"/>
                        <Array as="points">
                            <mxPoint x="1030" y="360"/>
                        </Array>
                    </mxGeometry>
                </mxCell>
                <mxCell id="333" value="" style="endArrow=none;html=1;exitX=1;exitY=0.5;exitDx=0;exitDy=0;strokeColor=#006EAF;" parent="251" source="165" edge="1">
                    <mxGeometry width="50" height="50" relative="1" as="geometry">
                        <mxPoint x="840" y="390" as="sourcePoint"/>
                        <mxPoint x="940" y="340" as="targetPoint"/>
                    </mxGeometry>
                </mxCell>
                <mxCell id="334" value="" style="endArrow=none;html=1;strokeColor=#BD7000;exitX=1;exitY=0.5;exitDx=0;exitDy=0;fillColor=#f0a30a;" parent="251" source="167" edge="1">
                    <mxGeometry width="50" height="50" relative="1" as="geometry">
                        <mxPoint x="860" y="420" as="sourcePoint"/>
                        <mxPoint x="940" y="380" as="targetPoint"/>
                    </mxGeometry>
                </mxCell>
                <mxCell id="393" value="" style="endArrow=none;html=1;exitX=0.5;exitY=0;exitDx=0;exitDy=0;fillColor=#e3c800;strokeColor=#B09500;" edge="1" parent="251" source="234">
                    <mxGeometry width="50" height="50" relative="1" as="geometry">
                        <mxPoint x="940" y="790" as="sourcePoint"/>
                        <mxPoint x="950" y="710" as="targetPoint"/>
                    </mxGeometry>
                </mxCell>
                <mxCell id="396" value="" style="endArrow=none;html=1;exitX=0.5;exitY=0;exitDx=0;exitDy=0;fillColor=#f0a30a;strokeColor=#BD7000;" edge="1" parent="251" source="236">
                    <mxGeometry width="50" height="50" relative="1" as="geometry">
                        <mxPoint x="840" y="810" as="sourcePoint"/>
                        <mxPoint x="990" y="710" as="targetPoint"/>
                    </mxGeometry>
                </mxCell>
                <mxCell id="399" value="" style="endArrow=none;html=1;exitX=0.5;exitY=0;exitDx=0;exitDy=0;fillColor=#e1d5e7;strokeColor=#9673a6;" edge="1" parent="251" source="239">
                    <mxGeometry width="50" height="50" relative="1" as="geometry">
                        <mxPoint x="1080" y="810" as="sourcePoint"/>
                        <mxPoint x="1030" y="710" as="targetPoint"/>
                    </mxGeometry>
                </mxCell>
                <mxCell id="297" value="Adafruit Micro SD SPI 4682" parent="0"/>
                <mxCell id="298" value="Adafruit Micro SD SPI 4682" style="rounded=0;whiteSpace=wrap;html=1;" parent="297" vertex="1">
                    <mxGeometry x="960" y="-120" width="180" height="160" as="geometry"/>
                </mxCell>
                <mxCell id="299" value="MicroSD Slot" style="rounded=0;whiteSpace=wrap;html=1;" parent="297" vertex="1">
                    <mxGeometry x="990" y="-120" width="120" height="60" as="geometry"/>
                </mxCell>
                <mxCell id="300" value="" style="ellipse;whiteSpace=wrap;html=1;aspect=fixed;" parent="297" vertex="1">
                    <mxGeometry x="960" y="20" width="20" height="20" as="geometry"/>
                </mxCell>
                <mxCell id="301" value="" style="ellipse;whiteSpace=wrap;html=1;aspect=fixed;" parent="297" vertex="1">
                    <mxGeometry x="980" y="20" width="20" height="20" as="geometry"/>
                </mxCell>
                <mxCell id="302" value="" style="ellipse;whiteSpace=wrap;html=1;aspect=fixed;" parent="297" vertex="1">
                    <mxGeometry x="1000" y="20" width="20" height="20" as="geometry"/>
                </mxCell>
                <mxCell id="303" value="" style="ellipse;whiteSpace=wrap;html=1;aspect=fixed;" parent="297" vertex="1">
                    <mxGeometry x="1020" y="20" width="20" height="20" as="geometry"/>
                </mxCell>
                <mxCell id="304" value="" style="ellipse;whiteSpace=wrap;html=1;aspect=fixed;" parent="297" vertex="1">
                    <mxGeometry x="1040" y="20" width="20" height="20" as="geometry"/>
                </mxCell>
                <mxCell id="305" value="" style="ellipse;whiteSpace=wrap;html=1;aspect=fixed;" parent="297" vertex="1">
                    <mxGeometry x="1060" y="20" width="20" height="20" as="geometry"/>
                </mxCell>
                <mxCell id="306" value="" style="ellipse;whiteSpace=wrap;html=1;aspect=fixed;" parent="297" vertex="1">
                    <mxGeometry x="1080" y="20" width="20" height="20" as="geometry"/>
                </mxCell>
                <mxCell id="307" value="" style="ellipse;whiteSpace=wrap;html=1;aspect=fixed;" parent="297" vertex="1">
                    <mxGeometry x="1100" y="20" width="20" height="20" as="geometry"/>
                </mxCell>
                <mxCell id="308" value="" style="ellipse;whiteSpace=wrap;html=1;aspect=fixed;" parent="297" vertex="1">
                    <mxGeometry x="1120" y="20" width="20" height="20" as="geometry"/>
                </mxCell>
                <mxCell id="309" value="3V" style="text;html=1;strokeColor=none;fillColor=none;align=center;verticalAlign=middle;whiteSpace=wrap;rounded=0;rotation=90;" parent="297" vertex="1">
                    <mxGeometry x="960" y="50" width="40" height="20" as="geometry"/>
                </mxCell>
                <mxCell id="310" value="CLK" style="text;html=1;strokeColor=none;fillColor=none;align=center;verticalAlign=middle;whiteSpace=wrap;rounded=0;rotation=90;" parent="297" vertex="1">
                    <mxGeometry x="1000" y="50" width="40" height="20" as="geometry"/>
                </mxCell>
                <mxCell id="311" value="MISO" style="text;html=1;strokeColor=none;fillColor=none;align=center;verticalAlign=middle;whiteSpace=wrap;rounded=0;rotation=90;" parent="297" vertex="1">
                    <mxGeometry x="1020" y="50" width="40" height="20" as="geometry"/>
                </mxCell>
                <mxCell id="312" value="MOSI" style="text;html=1;strokeColor=none;fillColor=none;align=center;verticalAlign=middle;whiteSpace=wrap;rounded=0;rotation=90;" parent="297" vertex="1">
                    <mxGeometry x="1040" y="50" width="40" height="20" as="geometry"/>
                </mxCell>
                <mxCell id="313" value="SS" style="text;html=1;strokeColor=none;fillColor=none;align=center;verticalAlign=middle;whiteSpace=wrap;rounded=0;rotation=90;" parent="297" vertex="1">
                    <mxGeometry x="1060" y="50" width="40" height="20" as="geometry"/>
                </mxCell>
                <mxCell id="314" value="D1" style="text;html=1;strokeColor=none;fillColor=none;align=center;verticalAlign=middle;whiteSpace=wrap;rounded=0;rotation=90;" parent="297" vertex="1">
                    <mxGeometry x="1080" y="50" width="40" height="20" as="geometry"/>
                </mxCell>
                <mxCell id="315" value="DAT2" style="text;html=1;strokeColor=none;fillColor=none;align=center;verticalAlign=middle;whiteSpace=wrap;rounded=0;rotation=90;" parent="297" vertex="1">
                    <mxGeometry x="1100" y="50" width="40" height="20" as="geometry"/>
                </mxCell>
                <mxCell id="316" value="DET" style="text;html=1;strokeColor=none;fillColor=none;align=center;verticalAlign=middle;whiteSpace=wrap;rounded=0;rotation=90;" parent="297" vertex="1">
                    <mxGeometry x="1120" y="50" width="40" height="20" as="geometry"/>
                </mxCell>
                <mxCell id="317" value="GND" style="text;html=1;strokeColor=none;fillColor=none;align=center;verticalAlign=middle;whiteSpace=wrap;rounded=0;rotation=90;" parent="297" vertex="1">
                    <mxGeometry x="980" y="50" width="40" height="20" as="geometry"/>
                </mxCell>
                <mxCell id="319" value="&lt;h1&gt;Battleships&lt;/h1&gt;&lt;p&gt;Wiring for Battleships prototype build&amp;nbsp;&lt;span&gt;7/22/2021, 12:22&lt;/span&gt;&lt;/p&gt;" style="text;html=1;strokeColor=none;fillColor=none;spacing=5;spacingTop=-20;whiteSpace=wrap;overflow=hidden;rounded=0;align=left;" parent="297" vertex="1">
                    <mxGeometry x="120" y="-120" width="190" height="120" as="geometry"/>
                </mxCell>
                <mxCell id="321" value="Adafruit Micro SD SPI 4682 Wiring" parent="0"/>
                <mxCell id="322" value="" style="endArrow=none;html=1;entryX=0.5;entryY=1;entryDx=0;entryDy=0;exitX=0;exitY=0.5;exitDx=0;exitDy=0;fillColor=#d80073;strokeColor=#A50040;" parent="321" source="195" target="300" edge="1">
                    <mxGeometry width="50" height="50" relative="1" as="geometry">
                        <mxPoint x="850" y="210" as="sourcePoint"/>
                        <mxPoint x="940" y="70" as="targetPoint"/>
                        <Array as="points">
                            <mxPoint x="460" y="340"/>
                            <mxPoint x="460" y="160"/>
                            <mxPoint x="970" y="160"/>
                        </Array>
                    </mxGeometry>
                </mxCell>
                <mxCell id="323" value="" style="endArrow=none;html=1;entryX=0.5;entryY=1;entryDx=0;entryDy=0;exitX=0;exitY=0.5;exitDx=0;exitDy=0;fillColor=#e3c800;strokeColor=#B09500;" parent="321" source="194" target="302" edge="1">
                    <mxGeometry width="50" height="50" relative="1" as="geometry">
                        <mxPoint x="1020" y="210" as="sourcePoint"/>
                        <mxPoint x="1070" y="160" as="targetPoint"/>
                        <Array as="points">
                            <mxPoint x="480" y="320"/>
                            <mxPoint x="480" y="200"/>
                            <mxPoint x="1010" y="200"/>
                        </Array>
                    </mxGeometry>
                </mxCell>
                <mxCell id="324" value="" style="endArrow=none;html=1;entryX=0.5;entryY=1;entryDx=0;entryDy=0;fillColor=#60a917;strokeColor=#2D7600;" parent="321" target="301" edge="1">
                    <mxGeometry width="50" height="50" relative="1" as="geometry">
                        <mxPoint x="990" y="190" as="sourcePoint"/>
                        <mxPoint x="1020" y="120" as="targetPoint"/>
                    </mxGeometry>
                </mxCell>
                <mxCell id="326" value="" style="endArrow=none;html=1;exitX=1;exitY=0.5;exitDx=0;exitDy=0;entryX=0.5;entryY=1;entryDx=0;entryDy=0;fillColor=#fad9d5;strokeColor=#ae4132;" parent="321" source="164" target="303" edge="1">
                    <mxGeometry width="50" height="50" relative="1" as="geometry">
                        <mxPoint x="860" y="320" as="sourcePoint"/>
                        <mxPoint x="1040" y="110" as="targetPoint"/>
                        <Array as="points">
                            <mxPoint x="1030" y="320"/>
                        </Array>
                    </mxGeometry>
                </mxCell>
                <mxCell id="327" value="" style="endArrow=none;html=1;entryX=0.5;entryY=1;entryDx=0;entryDy=0;fillColor=#0050ef;strokeColor=#006EAF;" parent="321" target="304" edge="1">
                    <mxGeometry width="50" height="50" relative="1" as="geometry">
                        <mxPoint x="960" y="340" as="sourcePoint"/>
                        <mxPoint x="1150" y="220" as="targetPoint"/>
                        <Array as="points">
                            <mxPoint x="1050" y="340"/>
                        </Array>
                    </mxGeometry>
                </mxCell>
                <mxCell id="328" value="" style="endArrow=none;html=1;entryX=0.5;entryY=1;entryDx=0;entryDy=0;strokeColor=#9673a6;fillColor=#e1d5e7;" parent="321" target="305" edge="1">
                    <mxGeometry width="50" height="50" relative="1" as="geometry">
                        <mxPoint x="980" y="360" as="sourcePoint"/>
                        <mxPoint x="1150" y="190" as="targetPoint"/>
                        <Array as="points">
                            <mxPoint x="1070" y="360"/>
                        </Array>
                    </mxGeometry>
                </mxCell>
                <mxCell id="329" value="" style="endArrow=none;html=1;strokeColor=#2D7600;fillColor=#60a917;" parent="321" edge="1">
                    <mxGeometry width="50" height="50" relative="1" as="geometry">
                        <mxPoint x="950" y="310" as="sourcePoint"/>
                        <mxPoint x="990" y="210" as="targetPoint"/>
                        <Array as="points">
                            <mxPoint x="950" y="260"/>
                            <mxPoint x="990" y="260"/>
                            <mxPoint x="990" y="240"/>
                        </Array>
                    </mxGeometry>
                </mxCell>
                <mxCell id="330" value="" style="endArrow=none;html=1;strokeColor=#2D7600;fillColor=#60a917;" parent="321" edge="1">
                    <mxGeometry width="50" height="50" relative="1" as="geometry">
                        <mxPoint x="950" y="350" as="sourcePoint"/>
                        <mxPoint x="950" y="330" as="targetPoint"/>
                    </mxGeometry>
                </mxCell>
                <mxCell id="331" value="" style="endArrow=none;html=1;strokeColor=#2D7600;fillColor=#60a917;" parent="321" edge="1">
                    <mxGeometry width="50" height="50" relative="1" as="geometry">
                        <mxPoint x="950" y="390" as="sourcePoint"/>
                        <mxPoint x="950" y="370" as="targetPoint"/>
                    </mxGeometry>
                </mxCell>
                <mxCell id="332" value="" style="endArrow=none;html=1;strokeColor=#2D7600;exitX=1;exitY=0.5;exitDx=0;exitDy=0;fillColor=#60a917;" parent="321" source="186" edge="1">
                    <mxGeometry width="50" height="50" relative="1" as="geometry">
                        <mxPoint x="890" y="490" as="sourcePoint"/>
                        <mxPoint x="950" y="410" as="targetPoint"/>
                        <Array as="points">
                            <mxPoint x="950" y="540"/>
                        </Array>
                    </mxGeometry>
                </mxCell>
                <mxCell id="361" value="Digital Buttons" parent="0"/>
                <mxCell id="362" value="" style="pointerEvents=1;verticalLabelPosition=bottom;shadow=0;dashed=0;align=center;html=1;verticalAlign=top;shape=mxgraph.electrical.electro-mechanical.push_switch_no;" vertex="1" parent="361">
                    <mxGeometry x="1330" y="464" width="75" height="19" as="geometry"/>
                </mxCell>
                <mxCell id="363" value="" style="pointerEvents=1;verticalLabelPosition=bottom;shadow=0;dashed=0;align=center;html=1;verticalAlign=top;shape=mxgraph.electrical.electro-mechanical.push_switch_no;" vertex="1" parent="361">
                    <mxGeometry x="1280" y="484" width="75" height="19" as="geometry"/>
                </mxCell>
                <mxCell id="364" value="" style="pointerEvents=1;verticalLabelPosition=bottom;shadow=0;dashed=0;align=center;html=1;verticalAlign=top;shape=mxgraph.electrical.electro-mechanical.push_switch_no;" vertex="1" parent="361">
                    <mxGeometry x="1250" y="504" width="75" height="19" as="geometry"/>
                </mxCell>
                <mxCell id="365" value="Digital Buttons Wiring" parent="0"/>
                <mxCell id="367" value="" style="endArrow=none;html=1;entryX=1;entryY=0.84;entryDx=0;entryDy=0;entryPerimeter=0;fillColor=#d80073;strokeColor=#A50040;" edge="1" parent="365" target="363">
                    <mxGeometry width="50" height="50" relative="1" as="geometry">
                        <mxPoint x="1020" y="700" as="sourcePoint"/>
                        <mxPoint x="1250" y="620" as="targetPoint"/>
                        <Array as="points">
                            <mxPoint x="1480" y="700"/>
                            <mxPoint x="1480" y="500"/>
                        </Array>
                    </mxGeometry>
                </mxCell>
                <mxCell id="368" value="" style="endArrow=none;html=1;entryX=1;entryY=0.84;entryDx=0;entryDy=0;entryPerimeter=0;fillColor=#d80073;strokeColor=#A50040;" edge="1" parent="365" target="364">
                    <mxGeometry width="50" height="50" relative="1" as="geometry">
                        <mxPoint x="1020" y="700" as="sourcePoint"/>
                        <mxPoint x="1300" y="570" as="targetPoint"/>
                        <Array as="points">
                            <mxPoint x="1480" y="700"/>
                            <mxPoint x="1480" y="520"/>
                        </Array>
                    </mxGeometry>
                </mxCell>
                <mxCell id="369" value="" style="endArrow=none;html=1;entryX=0;entryY=0.84;entryDx=0;entryDy=0;entryPerimeter=0;exitX=1;exitY=0.5;exitDx=0;exitDy=0;" edge="1" parent="365" source="180" target="362">
                    <mxGeometry width="50" height="50" relative="1" as="geometry">
                        <mxPoint x="850" y="510" as="sourcePoint"/>
                        <mxPoint x="900" y="460" as="targetPoint"/>
                    </mxGeometry>
                </mxCell>
                <mxCell id="371" value="" style="endArrow=none;html=1;entryX=0;entryY=0.84;entryDx=0;entryDy=0;entryPerimeter=0;exitX=1;exitY=0.5;exitDx=0;exitDy=0;" edge="1" parent="365" source="182" target="363">
                    <mxGeometry width="50" height="50" relative="1" as="geometry">
                        <mxPoint x="900" y="630" as="sourcePoint"/>
                        <mxPoint x="950" y="580" as="targetPoint"/>
                    </mxGeometry>
                </mxCell>
                <mxCell id="372" value="" style="endArrow=none;html=1;entryX=0;entryY=0.84;entryDx=0;entryDy=0;entryPerimeter=0;exitX=1;exitY=0.5;exitDx=0;exitDy=0;" edge="1" parent="365" source="184" target="364">
                    <mxGeometry width="50" height="50" relative="1" as="geometry">
                        <mxPoint x="880" y="640" as="sourcePoint"/>
                        <mxPoint x="930" y="590" as="targetPoint"/>
                    </mxGeometry>
                </mxCell>
                <mxCell id="375" value="" style="endArrow=none;html=1;exitX=1;exitY=0.5;exitDx=0;exitDy=0;entryX=1;entryY=0.5;entryDx=0;entryDy=0;entryPerimeter=0;fillColor=#60a917;strokeColor=#2D7600;" edge="1" parent="365" source="186" target="374">
                    <mxGeometry width="50" height="50" relative="1" as="geometry">
                        <mxPoint x="1050" y="570" as="sourcePoint"/>
                        <mxPoint x="1050" y="540" as="targetPoint"/>
                        <Array as="points">
                            <mxPoint x="1050" y="540"/>
                            <mxPoint x="1050" y="570"/>
                        </Array>
                    </mxGeometry>
                </mxCell>
                <mxCell id="376" value="" style="endArrow=none;html=1;exitX=0;exitY=0.5;exitDx=0;exitDy=0;exitPerimeter=0;fillColor=#60a917;strokeColor=#2D7600;" edge="1" parent="365" source="374">
                    <mxGeometry width="50" height="50" relative="1" as="geometry">
                        <mxPoint x="1160" y="610" as="sourcePoint"/>
                        <mxPoint x="1190" y="480" as="targetPoint"/>
                        <Array as="points">
                            <mxPoint x="1190" y="570"/>
                            <mxPoint x="1190" y="480"/>
                        </Array>
                    </mxGeometry>
                </mxCell>
                <mxCell id="377" value="10k Ω" style="text;html=1;strokeColor=none;fillColor=none;align=center;verticalAlign=middle;whiteSpace=wrap;rounded=0;" vertex="1" parent="365">
                    <mxGeometry x="1100" y="540" width="40" height="20" as="geometry"/>
                </mxCell>
                <mxCell id="385" value="" style="pointerEvents=1;verticalLabelPosition=bottom;shadow=0;dashed=0;align=center;html=1;verticalAlign=top;shape=mxgraph.electrical.resistors.resistor_2;direction=west;fillColor=#60a917;strokeColor=#2D7600;fontColor=#ffffff;" vertex="1" parent="365">
                    <mxGeometry x="1070" y="600" width="100" height="20" as="geometry"/>
                </mxCell>
                <mxCell id="386" value="10k Ω" style="text;html=1;strokeColor=none;fillColor=none;align=center;verticalAlign=middle;whiteSpace=wrap;rounded=0;" vertex="1" parent="365">
                    <mxGeometry x="1100" y="580" width="40" height="20" as="geometry"/>
                </mxCell>
                <mxCell id="387" value="" style="pointerEvents=1;verticalLabelPosition=bottom;shadow=0;dashed=0;align=center;html=1;verticalAlign=top;shape=mxgraph.electrical.resistors.resistor_2;direction=west;fillColor=#60a917;strokeColor=#2D7600;fontColor=#ffffff;" vertex="1" parent="365">
                    <mxGeometry x="1070" y="640" width="100" height="20" as="geometry"/>
                </mxCell>
                <mxCell id="388" value="10k Ω" style="text;html=1;strokeColor=none;fillColor=none;align=center;verticalAlign=middle;whiteSpace=wrap;rounded=0;" vertex="1" parent="365">
                    <mxGeometry x="1100" y="620" width="40" height="20" as="geometry"/>
                </mxCell>
                <mxCell id="389" value="" style="endArrow=none;html=1;exitX=1;exitY=0.5;exitDx=0;exitDy=0;exitPerimeter=0;fillColor=#60a917;strokeColor=#2D7600;" edge="1" parent="365" source="385">
                    <mxGeometry width="50" height="50" relative="1" as="geometry">
                        <mxPoint x="1050" y="640" as="sourcePoint"/>
                        <mxPoint x="1050" y="550" as="targetPoint"/>
                        <Array as="points">
                            <mxPoint x="1050" y="610"/>
                        </Array>
                    </mxGeometry>
                </mxCell>
                <mxCell id="390" value="" style="endArrow=none;html=1;exitX=1;exitY=0.5;exitDx=0;exitDy=0;exitPerimeter=0;fillColor=#60a917;strokeColor=#2D7600;" edge="1" parent="365" source="387">
                    <mxGeometry width="50" height="50" relative="1" as="geometry">
                        <mxPoint x="1030" y="680" as="sourcePoint"/>
                        <mxPoint x="1050" y="550" as="targetPoint"/>
                        <Array as="points">
                            <mxPoint x="1050" y="650"/>
                        </Array>
                    </mxGeometry>
                </mxCell>
                <mxCell id="391" value="" style="endArrow=none;html=1;exitX=0;exitY=0.5;exitDx=0;exitDy=0;exitPerimeter=0;fillColor=#60a917;strokeColor=#2D7600;" edge="1" parent="365" source="385">
                    <mxGeometry width="50" height="50" relative="1" as="geometry">
                        <mxPoint x="1210" y="620" as="sourcePoint"/>
                        <mxPoint x="1210" y="500" as="targetPoint"/>
                        <Array as="points">
                            <mxPoint x="1210" y="610"/>
                            <mxPoint x="1210" y="500"/>
                        </Array>
                    </mxGeometry>
                </mxCell>
                <mxCell id="392" value="" style="endArrow=none;html=1;exitX=0;exitY=0.5;exitDx=0;exitDy=0;exitPerimeter=0;fillColor=#60a917;strokeColor=#2D7600;" edge="1" parent="365" source="387">
                    <mxGeometry width="50" height="50" relative="1" as="geometry">
                        <mxPoint x="1230" y="660" as="sourcePoint"/>
                        <mxPoint x="1230" y="520" as="targetPoint"/>
                        <Array as="points">
                            <mxPoint x="1230" y="650"/>
                            <mxPoint x="1230" y="520"/>
                        </Array>
                    </mxGeometry>
                </mxCell>
                <mxCell id="395" value="" style="endArrow=none;html=1;fillColor=#d80073;strokeColor=#A50040;" edge="1" parent="365">
                    <mxGeometry width="50" height="50" relative="1" as="geometry">
                        <mxPoint x="960" y="700" as="sourcePoint"/>
                        <mxPoint x="460" y="590" as="targetPoint"/>
                        <Array as="points">
                            <mxPoint x="460" y="700"/>
                        </Array>
                    </mxGeometry>
                </mxCell>
                <mxCell id="397" value="" style="endArrow=none;html=1;fillColor=#d80073;strokeColor=#A50040;" edge="1" parent="365">
                    <mxGeometry width="50" height="50" relative="1" as="geometry">
                        <mxPoint x="1000" y="700" as="sourcePoint"/>
                        <mxPoint x="980" y="700" as="targetPoint"/>
                    </mxGeometry>
                </mxCell>
                <mxCell id="398" value="" style="endArrow=none;html=1;entryX=1;entryY=0.84;entryDx=0;entryDy=0;entryPerimeter=0;fillColor=#d80073;strokeColor=#A50040;" edge="1" parent="365" target="362">
                    <mxGeometry width="50" height="50" relative="1" as="geometry">
                        <mxPoint x="1020" y="700" as="sourcePoint"/>
                        <mxPoint x="1520" y="600" as="targetPoint"/>
                        <Array as="points">
                            <mxPoint x="1480" y="700"/>
                            <mxPoint x="1480" y="480"/>
                        </Array>
                    </mxGeometry>
                </mxCell>
            </root>
        </mxGraphModel>
    </diagram>
</mxfile>